HIERARCHY
ROOT Hips
{
    OFFSET 0.000000 0.000000 0.000000
    CHANNELS 6 Xposition Yposition Zposition Zrotation Xrotation Yrotation
    JOINT Spine
    {
        OFFSET -0.000000 7.236184 0.000000
        CHANNELS 3 Zrotation Xrotation Yrotation
        JOINT Spine1
        {
            OFFSET -0.000000 20.420147 0.000000
            CHANNELS 3 Zrotation Xrotation Yrotation
            JOINT Neck
            {
                OFFSET -0.000000 20.336288 1.848754
                CHANNELS 3 Zrotation Xrotation Yrotation
                JOINT Head
                {
                    OFFSET -0.000000 12.354461 -1.764923
                    CHANNELS 3 Zrotation Xrotation Yrotation
                    End Site
                    {
                        OFFSET -0.000000 22.061537 0.000000
                    }
                }
            }
            JOINT LeftShoulder
            {
                OFFSET 3.573296 18.396038 -0.314103
                CHANNELS 3 Zrotation Xrotation Yrotation
                JOINT LeftArm
                {
                    OFFSET 10.880760 0.000000 0.000000
                    CHANNELS 3 Zrotation Xrotation Yrotation
                    JOINT LeftForeArm
                    {
                        OFFSET 27.185530 0.000000 0.000000
                        CHANNELS 3 Zrotation Xrotation Yrotation
                        JOINT LeftHand
                        {
                            OFFSET 27.825975 0.000000 0.000000
                            CHANNELS 3 Zrotation Xrotation Yrotation
                            End Site
                            {
                                OFFSET 13.236923 0.000000 0.000000
                            }
                        }
                    }
                }
            }
            JOINT RightShoulder
            {
                OFFSET -3.474926 18.396038 -0.314103
                CHANNELS 3 Zrotation Xrotation Yrotation
                JOINT RightArm
                {
                    OFFSET -10.880760 0.000000 0.000000
                    CHANNELS 3 Zrotation Xrotation Yrotation
                    JOINT RightForeArm
                    {
                        OFFSET -27.185530 0.000000 0.000000
                        CHANNELS 3 Zrotation Xrotation Yrotation
                        JOINT RightHand
                        {
                            OFFSET -27.825975 0.000000 0.000000
                            CHANNELS 3 Zrotation Xrotation Yrotation
                            End Site
                            {
                                OFFSET -13.236923 0.000000 0.000000
                            }
                        }
                    }
                }
            }
        }
    }
    JOINT LeftUpLeg
    {
        OFFSET 8.824615 0.000000 0.000000
        CHANNELS 3 Zrotation Xrotation Yrotation
        JOINT LeftLeg
        {
            OFFSET -0.000000 -35.111282 0.000000
            CHANNELS 3 Zrotation Xrotation Yrotation
            JOINT LeftFoot
            {
                OFFSET -0.000000 -42.324711 0.000000
                CHANNELS 3 Zrotation Xrotation Yrotation
                JOINT LeftToeBase
                {
                    OFFSET -0.000000 -5.735999 13.236923
                    CHANNELS 3 Zrotation Xrotation Yrotation
                    End Site
                    {
                        OFFSET -0.000000 0.000000 3.529846
                    }
                }
            }
        }
    }
    JOINT RightUpLeg
    {
        OFFSET -8.824615 0.000000 0.000000
        CHANNELS 3 Zrotation Xrotation Yrotation
        JOINT RightLeg
        {
            OFFSET -0.000000 -35.111282 0.000000
            CHANNELS 3 Zrotation Xrotation Yrotation
            JOINT RightFoot
            {
                OFFSET -0.000000 -42.324711 0.000000
                CHANNELS 3 Zrotation Xrotation Yrotation
                JOINT RightToeBase
                {
                    OFFSET -0.000000 -5.735999 13.236923
                    CHANNELS 3 Zrotation Xrotation Yrotation
                    End Site
                    {
                        OFFSET -0.000000 0.000000 3.529846
                    }
                }
            }
        }
    }
}
MOTION
Frames:    12
Frame Time:    0.008333
-6.382379    70.136299    121.844772    2.854990    -36.072357    -175.279907    -1.518064    -1.945484    -0.128586    0.493116    4.119112    -0.120789    0.482994    8.250095    -2.700589    3.880729    -18.259193    -1.692812    30.503082    -23.983412    -12.313690    -19.353134    -2.412615    -73.815163    20.828251    1.553804    -16.530619    27.888746    0.854757    -15.047979    -26.533983    -11.380014    12.147603    16.605864    -10.918642    57.844654    -25.351597    -9.298205    26.191320    -16.525328    -3.926506    4.068038    42.940014    -79.869362    34.445831    -2.349677    56.854645    12.538289    -8.996858    -7.747646    -18.504606    0.067046    -5.967633    -0.075170    -41.993813    -75.231995    -33.037403    1.273326    55.492565    9.796242    5.028825    -10.086017    -16.873856    -0.975308    -5.848424    1.063828    
-6.394425    70.234550    121.826981    2.913664    -36.055481    -175.167801    -1.477240    -2.023653    -0.152003    0.518126    4.174419    -0.144789    0.403923    8.255660    -2.710003    4.024936    -18.173843    -1.656762    30.529020    -23.997448    -12.180693    -19.300922    -2.328437    -73.881111    20.846062    1.551082    -16.633886    27.948877    0.887300    -14.962683    -26.524748    -11.348917    12.150693    16.889503    -10.896139    57.869740    -25.414425    -9.440636    26.332493    -16.758608    -4.025943    4.040626    42.274075    -79.789894    33.867321    -2.229533    56.647552    12.363145    -8.998972    -7.709083    -18.507431    0.063857    -6.029089    -0.071603    -41.770401    -75.044106    -32.823410    1.357801    55.272755    9.667266    5.042319    -10.036282    -16.861385    -0.975676    -5.876655    1.064276    
-6.406005    70.314064    121.818817    2.970146    -36.063007    -175.064117    -1.440237    -2.090268    -0.172334    0.544685    4.224851    -0.166241    0.323176    8.197888    -2.717432    4.164380    -18.098932    -1.619975    30.565105    -24.024282    -12.046379    -19.248384    -2.260994    -73.931419    20.875118    1.570627    -16.731047    28.062716    0.928516    -14.904255    -26.521883    -11.329744    12.157471    17.164074    -10.891086    57.883053    -25.500002    -9.559093    26.472990    -17.057365    -4.098836    4.020053    41.797901    -79.748642    33.461922    -2.126357    56.475018    12.210821    -8.995189    -7.679332    -18.505888    0.059949    -6.085707    -0.067230    -41.676189    -74.901611    -32.736454    1.441147    55.089275    9.542633    5.054757    -9.988883    -16.845444    -0.973370    -5.912633    1.061819    
-6.417182    70.374733    121.820213    3.023672    -36.094257    -174.969437    -1.407710    -2.144613    -0.189197    0.572898    4.269472    -0.184245    0.243300    8.081388    -2.723374    4.295144    -18.036776    -1.584054    30.610128    -24.063128    -11.912528    -19.198709    -2.210552    -73.966774    20.915201    1.610230    -16.822746    28.223572    0.978154    -14.869024    -26.525032    -11.321292    12.167735    17.426691    -10.903123    57.885216    -25.609434    -9.653390    26.610149    -17.413700    -4.144707    4.005140    41.500881    -79.745880    33.219162    -2.040342    56.337345    12.081607    -8.986109    -7.658219    -18.500282    0.055649    -6.137261    -0.062414    -41.705902    -74.804749    -32.772781    1.519603    54.943119    9.426442    5.064160    -9.944159    -16.826721    -0.968766    -5.954742    1.056864    
-6.427973    70.416138    121.830986    3.073218    -36.147995    -174.884781    -1.380150    -2.185360    -0.201615    0.602066    4.307093    -0.198328    0.167511    7.911391    -2.728191    4.413173    -17.989540    -1.550471    30.663527    -24.112646    -11.781352    -19.155003    -2.177694    -73.987778    20.966148    1.667699    -16.909109    28.423830    1.035968    -14.853501    -26.532999    -11.321815    12.181412    17.672882    -10.932026    57.876778    -25.743141    -9.723422    26.740776    -17.816452    -4.163491    3.994797    41.377045    -79.781174    33.132980    -1.972299    56.235466    11.976746    -8.972751    -7.645451    -18.491175    0.050940    -6.183915    -0.057138    -41.855156    -74.753448    -32.929226    1.589766    54.835667    9.322742    5.072057    -9.903255    -16.805519    -0.962287    -6.001742    1.049873    
-6.438455    70.438400    121.850922    3.118435    -36.223167    -174.810394    -1.357797    -2.212120    -0.209688    0.632259    4.337641    -0.207420    0.096770    7.691439    -2.732198    4.517199    -17.957825    -1.519908    30.724972    -24.172304    -11.653625    -19.120564    -2.162324    -73.995132    21.027847    1.740986    -16.991199    28.656549    1.101736    -14.854556    -26.545755    -11.329235    12.198631    17.902702    -10.979753    57.858715    -25.900669    -9.769608    26.863922    -18.256227    -4.155516    3.988210    41.422153    -79.853455    33.199169    -1.922583    56.169224    11.896713    -8.956108    -7.640580    -18.478960    0.045955    -6.225567    -0.051551    -42.120800    -74.746597    -33.203842    1.649288    54.767265    9.234247    5.080101    -9.867367    -16.782137    -0.954429    -6.053129    1.041381    
-6.448567    70.441277    121.879517    3.158605    -36.317814    -174.747299    -1.341098    -2.223991    -0.212152    0.663474    4.360843    -0.211691    0.032789    7.427571    -2.735509    4.604743    -17.943127    -1.493156    30.792948    -24.240719    -11.531590    -19.098007    -2.165000    -73.989388    21.099178    1.827117    -17.068735    28.912859    1.174009    -14.870006    -26.563040    -11.341709    12.219831    18.113346    -11.047379    57.831356    -26.079821    -9.792836    26.977669    -18.718176    -4.121922    3.984620    41.636581    -79.960709    33.418163    -1.891780    56.139381    11.842127    -8.936992    -7.643325    -18.463800    0.040924    -6.261865    -0.045912    -42.498631    -74.782860    -33.593170    1.696012    54.738552    9.163917    5.087204    -9.837221    -16.757730    -0.945581    -6.106451    1.031811    
-6.458312    70.424965    121.916321    3.193570    -36.430187    -174.695831    -1.330181    -2.220503    -0.209254    0.695940    4.376833    -0.210234    -0.024337    7.123434    -2.738260    4.675850    -17.944565    -1.470250    30.866795    -24.317537    -11.415795    -19.089306    -2.184467    -73.971214    21.180138    1.923033    -17.142075    29.184984    1.251224    -14.897963    -26.584862    -11.357233    12.245607    18.305864    -11.137863    57.795265    -26.277143    -9.794217    27.082674    -19.191929    -4.064224    3.983649    42.022911    -80.100616    33.792862    -1.879901    56.145908    11.813066    -8.916296    -7.653456    -18.446081    0.035840    -6.292769    -0.040210    -42.985886    -74.860367    -34.095467    1.728318    54.749496    9.113777    5.095613    -9.814336    -16.732365    -0.936059    -6.160295    1.021506    
-6.467623    70.389709    121.960739    3.223340    -36.558353    -174.656219    -1.324916    -2.201417    -0.200470    0.729584    4.385952    -0.203078    -0.073593    6.783675    -2.740301    4.729610    -17.961870    -1.451501    30.946016    -24.402008    -11.306954    -19.096502    -2.220241    -73.941460    21.269669    2.026112    -17.211061    29.466671    1.331597    -14.937459    -26.610933    -11.374284    12.276367    18.481251    -11.253459    57.750893    -26.488426    -9.775125    27.179937    -19.665833    -3.984142    3.985497    42.587250    -80.270264    34.329800    -1.887105    56.188717    11.809330    -8.893985    -7.670768    -18.425768    0.030972    -6.317816    -0.034751    -43.580017    -74.976715    -34.709309    1.744230    54.799801    9.086347    5.105706    -9.799657    -16.706642    -0.925937    -6.212893    1.010542    
-6.476496    70.335480    122.012459    3.248304    -36.701508    -174.628326    -1.325362    -2.166464    -0.185489    0.765346    4.388436    -0.190053    -0.116480    6.410126    -2.741893    4.768249    -17.994453    -1.436286    31.029463    -24.494120    -11.205130    -19.120131    -2.271778    -73.900658    21.367535    2.134822    -17.276056    29.754072    1.414232    -14.987964    -26.641636    -11.391653    12.312438    18.642956    -11.397659    57.698620    -26.709824    -9.736239    27.272364    -20.135450    -3.882680    3.990488    43.344208    -80.467537    35.043953    -1.913235    56.267853    11.830470    -8.870644    -7.695044    -18.402960    0.026319    -6.336959    -0.029532    -44.284729    -75.130646    -35.440216    1.741413    54.889664    9.084167    5.117352    -9.793829    -16.680637    -0.915288    -6.262706    0.998996    
-6.484741    70.263298    122.070206    3.268491    -36.856106    -174.612411    -1.331174    -2.116092    -0.164839    0.802687    4.384528    -0.171066    -0.152089    6.011715    -2.742828    4.791463    -18.041319    -1.424719    31.115685    -24.592228    -11.111928    -19.160791    -2.337228    -73.849838    21.471931    2.246181    -17.336157    30.039898    1.496874    -15.048479    -26.676315    -11.408596    12.353556    18.791309    -11.570465    57.639530    -26.933128    -9.679394    27.361240    -20.587727    -3.763038    3.999062    44.297447    -80.686813    35.940350    -1.957617    56.382122    11.875725    -8.846672    -7.725696    -18.378424    0.021953    -6.350321    -0.024635    -45.091309    -75.317688    -36.280907    1.717178    55.017487    9.110135    5.133224    -9.797705    -16.654436    -0.904481    -6.308366    0.987270    
-6.492350    70.173515    122.133492    3.284591    -37.021107    -174.607788    -1.341715    -2.050797    -0.138537    0.841448    4.374924    -0.146497    -0.181381    5.590941    -2.743159    4.801839    -18.101971    -1.416119    31.204313    -24.695898    -11.026632    -19.217777    -2.415902    -73.789917    21.582195    2.359570    -17.391783    30.322783    1.579186    -15.118455    -26.714466    -11.426174    12.398802    18.931067    -11.772448    57.575092    -27.153774    -9.605406    27.449930    -21.021048    -3.626534    4.012031    45.464413    -80.925171    37.038177    -2.018068    56.531155    11.941887    -8.822155    -7.762560    -18.352022    0.018087    -6.357970    -0.020298    -46.003773    -75.535339    -37.237244    1.669179    55.182659    9.166529    5.151801    -9.810919    -16.628496    -0.893488    -6.349906    0.975334    
